# Blender v2.82 (sub 7) OBJ File: 'Enemy.blend'
# www.blender.org
mtllib Enemy.mtl
o Cube_Cube.001
v 1.756413 10.943703 0.762955
v 1.706856 6.834991 0.762955
v 1.917573 8.834991 0.762955
v 1.706856 6.834991 -0.695228
v 1.917573 8.834991 -0.695228
v 1.917573 8.834991 0.762955
v 1.917573 8.834991 0.000000
v 1.917573 8.834991 -0.695228
v 1.917573 7.834991 -0.695228
v 1.706856 6.834991 0.000000
v 1.917573 8.834991 0.000000
v 1.917573 7.834991 0.762955
v 1.917573 7.834991 0.000000
v 1.756413 10.943703 0.000000
v 1.756413 10.943703 -0.695228
v 1.098355 12.419914 0.762955
v 1.098355 12.419914 -0.695228
v 1.098355 12.419914 0.000000
v 0.766784 12.842255 0.334381
v 0.766784 12.842255 -0.266653
v 0.766784 12.842255 0.000000
v 1.000000 14.106625 0.762955
v 1.000000 14.106625 -0.695228
v 1.000000 14.106625 0.000000
v 0.593846 14.991074 0.506869
v 0.593846 14.991074 -0.439142
v 0.769688 14.991074 0.000000
v 4.149030 11.115221 -0.903414
v 4.149030 11.115221 -0.006548
v 4.149030 11.115221 0.977688
v 4.149030 12.393509 0.977688
v 4.149030 12.393509 -0.903414
v 4.149030 12.393509 -0.006548
v 1.879561 4.031281 0.043827
v 1.879561 4.031281 -0.651401
v 0.493305 4.031281 0.806783
v 1.879561 4.031281 0.806783
v 0.493305 4.031281 -0.651401
v 0.493305 4.031281 0.043827
v 1.731052 0.194277 0.074808
v 1.731052 0.194277 -0.620421
v 0.731052 0.194277 0.837763
v 1.731052 0.194277 0.837763
v 0.731052 0.194277 -0.620421
v 0.731052 0.194277 0.074808
v 6.841638 11.343531 -0.572640
v 6.841638 11.343531 0.003856
v 6.841638 11.343531 0.636511
v 6.841638 12.165199 0.636511
v 6.841638 12.165199 -0.572640
v 6.841638 12.165199 0.003856
v 7.609450 11.393705 -0.423173
v 7.609450 11.393705 0.000000
v 7.609450 11.393705 0.490900
v 7.609450 12.115023 0.490900
v 7.609450 12.115023 -0.423173
v 7.609450 12.115023 0.000000
v 8.605652 11.377455 -0.504688
v 8.605652 11.377455 0.003897
v 8.605652 11.377455 0.568518
v 8.605652 12.131271 0.568518
v 8.605652 12.131271 -0.504688
v 8.605652 12.131271 0.003897
v 0.000000 10.815359 -0.940257
v 0.000000 10.815359 1.571097
v -1.756413 10.943703 0.762955
v 0.000000 8.834991 0.000000
v -1.706856 6.834991 0.762955
v -1.917573 8.834991 0.762955
v -1.706856 6.834991 -0.695228
v -1.917573 8.834991 -0.695228
v 0.000000 8.834991 1.896123
v -1.917573 8.834991 0.762955
v -1.917573 8.834991 0.000000
v -1.917573 8.834991 -0.695228
v 0.000000 6.834991 -0.695228
v 0.000000 8.834991 -1.187369
v -1.917573 7.834991 -0.695228
v -1.706856 6.834991 0.000000
v -1.917573 8.834991 0.000000
v -1.917573 7.834991 0.762955
v 0.000000 6.834991 0.762955
v 0.000000 8.834991 0.000000
v 0.000000 6.834991 0.000000
v 0.000000 7.834991 1.679035
v -1.917573 7.834991 0.000000
v 0.000000 7.834991 -1.187369
v 0.000000 10.815359 0.000000
v -1.756413 10.943703 0.000000
v -1.756413 10.943703 -0.695228
v 0.000000 12.249813 0.000000
v 0.000000 12.249813 0.762955
v 0.000000 12.249813 -0.695228
v -1.098355 12.419914 0.762955
v -1.098355 12.419914 -0.695228
v -1.098355 12.419914 0.000000
v 0.000000 12.842255 0.000000
v 0.000000 12.842255 0.497640
v 0.000000 12.842255 -0.429913
v -0.766784 12.842255 0.334381
v -0.766784 12.842255 -0.266653
v -0.766784 12.842255 0.000000
v 0.000000 14.106625 0.000000
v 0.000000 14.106625 0.762955
v 0.000000 14.106625 -0.695228
v -1.000000 14.106625 0.762955
v -1.000000 14.106625 -0.695228
v -1.000000 14.106625 0.000000
v 0.000000 14.991074 0.000000
v 0.000000 14.991074 0.562016
v 0.000000 14.991074 -0.494289
v -0.593846 14.991074 0.506869
v -0.593846 14.991074 -0.439142
v -0.769688 14.991074 0.000000
v -4.149030 11.115221 -0.903414
v -4.149030 11.115221 -0.006548
v -4.149030 11.115221 0.977688
v -4.149030 12.393509 0.977688
v -4.149030 12.393509 -0.903414
v -4.149030 12.393509 -0.006548
v -1.879561 4.031281 0.043827
v -1.879561 4.031281 -0.651401
v -0.493305 4.031281 0.806783
v -1.879561 4.031281 0.806783
v -0.493305 4.031281 -0.651401
v -0.493305 4.031281 0.043827
v -1.731052 0.194277 0.074808
v -1.731052 0.194277 -0.620421
v -0.731052 0.194277 0.837763
v -1.731052 0.194277 0.837763
v -0.731052 0.194277 -0.620421
v -0.731052 0.194277 0.074808
v -6.841638 11.343531 -0.572640
v -6.841638 11.343531 0.003856
v -6.841638 11.343531 0.636511
v -6.841638 12.165199 0.636511
v -6.841638 12.165199 -0.572640
v -6.841638 12.165199 0.003856
v -7.609450 11.393705 -0.423173
v -7.609450 11.393705 0.000000
v -7.609450 11.393705 0.490900
v -7.609450 12.115023 0.490900
v -7.609450 12.115023 -0.423173
v -7.609450 12.115023 0.000000
v -8.605652 11.377455 -0.504688
v -8.605652 11.377455 0.003897
v -8.605652 11.377455 0.568518
v -8.605652 12.131271 0.568518
v -8.605652 12.131271 -0.504688
v -8.605652 12.131271 0.003897
vt 0.625000 0.500000
vt 0.625000 0.375000
vt 0.625000 0.375000
vt 0.625000 0.500000
vt 0.500000 0.375000
vt 0.625000 0.500000
vt 0.500000 0.500000
vt 0.500000 0.625000
vt 0.625000 0.625000
vt 0.625000 0.750000
vt 0.500000 0.750000
vt 0.625000 0.625000
vt 0.625000 0.500000
vt 0.625000 0.625000
vt 0.000000 0.000000
vt 0.000000 0.000000
vt 0.000000 0.000000
vt 0.000000 0.000000
vt 0.625000 0.875000
vt 0.625000 0.750000
vt 0.625000 0.750000
vt 0.625000 0.875000
vt 0.625000 0.625000
vt 0.625000 0.750000
vt 0.375000 0.625000
vt 0.375000 0.750000
vt 0.375000 0.750000
vt 0.375000 0.625000
vt 0.500000 0.875000
vt 0.375000 0.875000
vt 0.625000 0.875000
vt 0.375000 0.500000
vt 0.375000 0.375000
vt 0.625000 0.625000
vt 0.625000 0.625000
vt 0.625000 0.750000
vt 0.625000 0.375000
vt 0.625000 0.500000
vt 0.625000 0.750000
vt 0.625000 0.625000
vt 0.625000 0.875000
vt 0.625000 0.750000
vt 0.625000 0.875000
vt 0.625000 0.500000
vt 0.625000 0.500000
vt 0.625000 0.625000
vt 0.625000 0.375000
vt 0.625000 0.375000
vt 0.625000 0.375000
vt 0.625000 0.500000
vt 0.625000 0.625000
vt 0.625000 0.750000
vt 0.750000 0.625000
vt 0.750000 0.750000
vt 0.750000 0.500000
vt 0.625000 0.875000
vt 0.625000 0.500000
vt 0.625000 0.625000
vt 0.625000 0.500000
vt 0.625000 0.500000
vt 0.625000 0.750000
vt 0.375000 0.375000
vt 0.375000 0.500000
vt 0.375000 0.500000
vt 0.375000 0.375000
vt 0.000000 0.000000
vt 0.000000 0.000000
vt 0.000000 0.000000
vt 0.000000 0.000000
vt 0.375000 0.875000
vt 0.250000 0.625000
vt 0.375000 0.625000
vt 0.375000 0.750000
vt 0.250000 0.750000
vt 0.250000 0.500000
vt 0.000000 0.000000
vt 0.375000 0.875000
vt 0.625000 0.750000
vt 0.625000 0.750000
vt 0.625000 0.750000
vt 0.625000 0.750000
vt 0.625000 0.625000
vt 0.625000 0.625000
vt 0.625000 0.625000
vt 0.625000 0.625000
vt 0.625000 0.750000
vt 0.625000 0.500000
vt 0.625000 0.625000
vt 0.625000 0.500000
vt 0.625000 0.500000
vt 0.625000 0.500000
vt 0.625000 0.750000
vt 0.625000 0.500000
vt 0.625000 0.500000
vt 0.500000 0.500000
vt 0.625000 0.500000
vt 0.500000 0.625000
vt 0.500000 0.750000
vt 0.625000 0.750000
vt 0.625000 0.625000
vt 0.625000 0.625000
vt 0.625000 0.625000
vt 0.625000 0.500000
vt 0.000000 0.000000
vt 0.000000 0.000000
vt 0.625000 0.750000
vt 0.625000 0.750000
vt 0.000000 0.000000
vt 0.000000 0.000000
vt 0.000000 0.000000
vt 0.625000 0.750000
vt 0.625000 0.625000
vt 0.000000 0.000000
vt 0.000000 0.000000
vt 0.375000 0.625000
vt 0.375000 0.625000
vt 0.375000 0.750000
vt 0.375000 0.750000
vt 0.375000 0.500000
vt 0.000000 0.000000
vt 0.000000 0.000000
vt 0.625000 0.750000
vt 0.625000 0.625000
vt 0.625000 0.625000
vt 0.000000 0.000000
vt 0.000000 0.000000
vt 0.000000 0.000000
vt 0.000000 0.000000
vt 0.625000 0.500000
vt 0.625000 0.625000
vt 0.625000 0.750000
vt 0.000000 0.000000
vt 0.625000 0.750000
vt 0.625000 0.625000
vt 0.625000 0.500000
vt 0.625000 0.500000
vt 0.000000 0.000000
vt 0.625000 0.500000
vt 0.625000 0.750000
vt 0.625000 0.625000
vt 0.000000 0.000000
vt 0.000000 0.000000
vt 0.000000 0.000000
vt 0.000000 0.000000
vt 0.000000 0.000000
vt 0.000000 0.000000
vt 0.625000 0.500000
vt 0.625000 0.500000
vt 0.625000 0.625000
vt 0.625000 0.500000
vt 0.625000 0.750000
vt 0.375000 0.375000
vt 0.375000 0.375000
vt 0.375000 0.500000
vt 0.375000 0.500000
vt 0.000000 0.000000
vt 0.000000 0.000000
vt 0.000000 0.000000
vt 0.375000 0.875000
vt 0.250000 0.625000
vt 0.250000 0.750000
vt 0.375000 0.750000
vt 0.375000 0.625000
vt 0.250000 0.500000
vt 0.000000 0.000000
vt 0.375000 0.875000
vt 0.625000 0.750000
vt 0.625000 0.750000
vt 0.625000 0.750000
vt 0.625000 0.750000
vt 0.625000 0.625000
vt 0.625000 0.625000
vt 0.625000 0.750000
vt 0.625000 0.625000
vt 0.625000 0.625000
vt 0.625000 0.500000
vt 0.625000 0.500000
vt 0.625000 0.625000
vt 0.625000 0.500000
vt 0.625000 0.500000
vt 0.625000 0.750000
vn 0.1940 0.0668 -0.9787
vn 0.2486 0.0000 -0.9686
vn 1.0000 0.0000 0.0000
vn 0.0715 -0.9974 0.0000
vn -0.9849 -0.1733 0.0000
vn 0.2292 0.3082 0.9233
vn 0.0000 0.0000 1.0000
vn 0.9981 0.0615 0.0000
vn 0.9971 0.0762 0.0000
vn 0.2218 -0.4253 0.8775
vn 0.4691 -0.0953 0.8780
vn 0.9785 -0.2062 0.0000
vn 0.1303 -0.2498 -0.9595
vn 0.4629 0.0884 0.8820
vn 0.7866 0.6175 0.0000
vn 0.0747 0.1004 -0.9921
vn 0.0087 1.0000 0.0000
vn 0.0886 -0.2712 0.9584
vn 0.9834 -0.1814 0.0000
vn 0.0201 0.5688 -0.8222
vn 0.0201 0.5688 0.8222
vn 0.0334 0.2572 -0.9658
vn 0.9271 0.3522 0.1284
vn 0.0886 -0.2712 -0.9584
vn 0.0000 1.0000 0.0000
vn 0.9244 0.3534 -0.1433
vn 0.0334 0.2572 0.9658
vn 0.0845 0.9964 0.0000
vn 0.1219 0.0000 -0.9925
vn -0.0781 -0.0187 0.9968
vn -0.0758 -0.0181 -0.9970
vn 0.0000 -0.0081 -1.0000
vn -0.9981 -0.0618 0.0000
vn 0.0000 -0.0156 -0.9999
vn 0.0000 0.0156 0.9999
vn 0.0000 -1.0000 0.0000
vn 0.9993 -0.0387 0.0000
vn 0.0000 0.0081 1.0000
vn 0.1863 0.0000 0.9825
vn 0.0652 0.9979 0.0000
vn 0.0845 -0.9964 0.0000
vn 0.1257 0.0000 0.9921
vn -0.0163 -0.9999 0.0000
vn -0.0163 0.9999 0.0000
vn 0.0652 -0.9979 0.0000
vn 0.1911 0.0000 -0.9816
vn -0.0777 0.0000 0.9970
vn -0.0816 0.0000 -0.9967
vn -0.1940 0.0668 -0.9787
vn -0.2486 0.0000 -0.9686
vn -1.0000 0.0000 0.0000
vn -0.0715 -0.9974 0.0000
vn 0.9849 -0.1733 0.0000
vn -0.2292 0.3082 0.9233
vn -0.9981 0.0615 0.0000
vn -0.9971 0.0762 0.0000
vn -0.2218 -0.4253 0.8775
vn -0.4691 -0.0953 0.8780
vn -0.9785 -0.2062 0.0000
vn -0.1303 -0.2498 -0.9595
vn -0.4629 0.0884 0.8820
vn -0.7866 0.6175 0.0000
vn -0.0747 0.1004 -0.9921
vn -0.0087 1.0000 0.0000
vn -0.0886 -0.2712 0.9584
vn -0.9834 -0.1814 0.0000
vn -0.0201 0.5688 -0.8222
vn -0.0201 0.5688 0.8222
vn -0.0334 0.2572 -0.9658
vn -0.9271 0.3522 0.1284
vn -0.0886 -0.2712 -0.9584
vn -0.9244 0.3534 -0.1433
vn -0.0334 0.2572 0.9658
vn -0.0845 0.9964 0.0000
vn -0.1219 0.0000 -0.9925
vn 0.0781 -0.0187 0.9968
vn 0.0758 -0.0181 -0.9970
vn 0.9981 -0.0618 0.0000
vn -0.9993 -0.0387 0.0000
vn -0.1863 0.0000 0.9825
vn -0.0652 0.9979 0.0000
vn -0.0845 -0.9964 0.0000
vn -0.1257 0.0000 0.9921
vn 0.0163 -0.9999 0.0000
vn 0.0163 0.9999 0.0000
vn -0.0652 -0.9979 0.0000
vn -0.1911 0.0000 -0.9816
vn 0.0777 0.0000 0.9970
vn 0.0816 0.0000 -0.9967
usemtl None
s off
f 8/1/1 77/2/1 64/3/1 15/4/1
f 87/5/2 77/2/2 5/6/2 9/7/2
f 13/8/3 11/9/3 3/10/3 12/11/3
f 14/12/4 15/4/4 28/13/4 29/14/4
f 82/15/5 84/16/5 39/17/5 36/18/5
f 65/19/6 1/20/6 16/21/6 92/22/6
f 3/10/7 11/9/7 7/23/7 6/24/7
f 11/9/7 5/6/7 8/1/7 7/23/7
f 5/6/7 77/2/7 8/1/7
f 10/25/8 2/26/8 37/27/8 34/28/8
f 7/23/9 8/1/9 15/4/9 14/12/9
f 2/26/10 12/11/10 85/29/10 82/30/10
f 12/11/11 3/10/11 72/31/11 85/29/11
f 10/25/12 13/8/12 12/11/12 2/26/12
f 4/32/12 9/7/12 13/8/12 10/25/12
f 9/7/3 5/6/3 11/9/3 13/8/3
f 76/33/13 87/5/13 9/7/13 4/32/13
f 6/24/9 7/23/9 14/12/9 1/20/9
f 72/31/7 3/10/7 6/24/7
f 72/31/14 6/24/14 1/20/14 65/19/14
f 16/21/15 18/34/15 21/35/15 19/36/15
f 15/4/16 64/3/16 93/37/16 17/38/16
f 18/34/17 16/21/17 31/39/17 33/40/17
f 98/41/18 19/36/18 22/42/18 104/43/18
f 21/35/19 20/44/19 23/45/19 24/46/19
f 17/38/20 93/37/20 99/47/20 20/44/20
f 18/34/15 17/38/15 20/44/15 21/35/15
f 92/22/21 16/21/21 19/36/21 98/41/21
f 23/45/22 105/48/22 111/49/22 26/50/22
f 22/42/23 24/46/23 27/51/23 25/52/23
f 19/36/19 21/35/19 24/46/19 22/42/19
f 20/44/24 99/47/24 105/48/24 23/45/24
f 27/51/25 109/53/25 110/54/25 25/52/25
f 26/50/25 111/55/25 109/53/25 27/51/25
f 24/46/26 23/45/26 26/50/26 27/51/26
f 104/43/27 22/42/27 25/52/27 110/56/27
f 32/57/28 33/40/28 51/58/28 50/59/28
f 28/13/29 32/57/29 50/59/29 46/60/29
f 16/21/30 1/20/30 30/61/30 31/39/30
f 15/4/31 17/38/31 32/57/31 28/13/31
f 1/20/4 14/12/4 29/14/4 30/61/4
f 17/38/17 18/34/17 33/40/17 32/57/17
f 38/62/32 35/63/32 41/64/32 44/65/32
f 36/18/33 39/17/33 45/66/33 42/67/33
f 84/16/5 76/68/5 38/69/5 39/17/5
f 4/32/8 10/25/8 34/28/8 35/63/8
f 76/33/34 4/32/34 35/63/34 38/62/34
f 2/26/35 82/30/35 36/70/35 37/27/35
f 45/71/36 40/72/36 43/73/36 42/74/36
f 44/75/36 41/64/36 40/72/36 45/71/36
f 35/63/37 34/28/37 40/72/37 41/64/37
f 39/17/33 38/69/33 44/76/33 45/66/33
f 34/28/37 37/27/37 43/73/37 40/72/37
f 37/27/38 36/70/38 42/77/38 43/73/38
f 49/78/39 48/79/39 54/80/39 55/81/39
f 51/58/40 49/78/40 55/81/40 57/82/40
f 30/61/41 29/14/41 47/83/41 48/79/41
f 33/40/28 31/39/28 49/78/28 51/58/28
f 31/39/42 30/61/42 48/79/42 49/78/42
f 29/14/41 28/13/41 46/60/41 47/83/41
f 54/80/43 53/84/43 59/85/43 60/86/43
f 56/87/44 57/82/44 63/88/44 62/89/44
f 47/83/45 46/60/45 52/90/45 53/84/45
f 46/60/46 50/59/46 56/87/46 52/90/46
f 50/59/40 51/58/40 57/82/40 56/87/40
f 48/79/45 47/83/45 53/84/45 54/80/45
f 59/85/3 58/91/3 62/89/3 63/88/3
f 60/86/3 59/85/3 63/88/3 61/92/3
f 57/82/44 55/81/44 61/92/44 63/88/44
f 55/81/47 54/80/47 60/86/47 61/92/47
f 53/84/43 52/90/43 58/91/43 59/85/43
f 52/90/48 56/87/48 62/89/48 58/91/48
f 75/93/49 90/94/49 64/3/49 77/2/49
f 87/5/50 78/95/50 71/96/50 77/2/50
f 86/97/51 81/98/51 69/99/51 80/100/51
f 89/101/52 116/102/52 115/103/52 90/94/52
f 82/15/53 123/104/53 126/105/53 84/16/53
f 65/19/54 92/22/54 94/106/54 66/107/54
f 83/108/7 67/109/7 72/110/7
f 69/99/7 73/111/7 74/112/7 80/100/7
f 80/100/7 74/112/7 75/93/7 71/96/7
f 67/109/3 88/113/3 65/114/3 72/110/3
f 71/96/7 75/93/7 77/2/7
f 79/115/55 121/116/55 124/117/55 68/118/55
f 74/112/56 89/101/56 90/94/56 75/93/56
f 68/118/57 82/30/57 85/29/57 81/98/57
f 81/98/58 85/29/58 72/31/58 69/99/58
f 79/115/59 68/118/59 81/98/59 86/97/59
f 70/119/59 79/115/59 86/97/59 78/95/59
f 78/95/51 86/97/51 80/100/51 71/96/51
f 76/33/60 70/119/60 78/95/60 87/5/60
f 77/120/7 67/109/7 83/108/7
f 73/111/56 66/107/56 89/101/56 74/112/56
f 72/31/7 73/111/7 69/99/7
f 77/120/3 64/121/3 88/113/3 67/109/3
f 72/31/61 65/19/61 66/107/61 73/111/61
f 94/106/62 100/122/62 102/123/62 96/124/62
f 91/125/3 97/126/3 98/127/3 92/128/3
f 90/94/63 95/129/63 93/37/63 64/3/63
f 96/124/64 120/130/64 118/131/64 94/106/64
f 64/121/3 93/132/3 91/125/3 88/113/3
f 88/113/3 91/125/3 92/128/3 65/114/3
f 98/41/65 104/43/65 106/133/65 100/122/65
f 102/123/66 108/134/66 107/135/66 101/136/66
f 95/129/67 101/136/67 99/47/67 93/37/67
f 93/132/3 99/137/3 97/126/3 91/125/3
f 96/124/62 102/123/62 101/136/62 95/129/62
f 92/22/68 98/41/68 100/122/68 94/106/68
f 107/135/69 113/138/69 111/49/69 105/48/69
f 106/133/70 112/139/70 114/140/70 108/134/70
f 97/126/3 103/141/3 104/142/3 98/127/3
f 100/122/66 106/133/66 108/134/66 102/123/66
f 101/136/71 107/135/71 105/48/71 99/47/71
f 99/137/3 105/143/3 103/141/3 97/126/3
f 114/140/25 112/139/25 110/54/25 109/53/25
f 113/138/25 114/140/25 109/53/25 111/55/25
f 105/143/3 111/144/3 109/145/3 103/141/3
f 108/134/72 114/140/72 113/138/72 107/135/72
f 104/43/73 110/56/73 112/139/73 106/133/73
f 103/141/3 109/145/3 110/146/3 104/142/3
f 119/147/74 137/148/74 138/149/74 120/130/74
f 115/103/75 133/150/75 137/148/75 119/147/75
f 94/106/76 118/131/76 117/151/76 66/107/76
f 90/94/77 115/103/77 119/147/77 95/129/77
f 66/107/52 117/151/52 116/102/52 89/101/52
f 95/129/64 119/147/64 120/130/64 96/124/64
f 125/152/32 131/153/32 128/154/32 122/155/32
f 123/104/78 129/156/78 132/157/78 126/105/78
f 84/16/53 126/105/53 125/158/53 76/68/53
f 70/119/55 122/155/55 121/116/55 79/115/55
f 76/33/34 125/152/34 122/155/34 70/119/34
f 68/118/35 124/117/35 123/159/35 82/30/35
f 132/160/36 129/161/36 130/162/36 127/163/36
f 131/164/36 132/160/36 127/163/36 128/154/36
f 122/155/79 128/154/79 127/163/79 121/116/79
f 126/105/78 132/157/78 131/165/78 125/158/78
f 121/116/79 127/163/79 130/162/79 124/117/79
f 124/117/38 130/162/38 129/166/38 123/159/38
f 136/167/80 142/168/80 141/169/80 135/170/80
f 138/149/81 144/171/81 142/168/81 136/167/81
f 117/151/82 135/170/82 134/172/82 116/102/82
f 120/130/74 138/149/74 136/167/74 118/131/74
f 118/131/83 136/167/83 135/170/83 117/151/83
f 116/102/82 134/172/82 133/150/82 115/103/82
f 141/169/84 147/173/84 146/174/84 140/175/84
f 143/176/85 149/177/85 150/178/85 144/171/85
f 134/172/86 140/175/86 139/179/86 133/150/86
f 133/150/87 139/179/87 143/176/87 137/148/87
f 137/148/81 143/176/81 144/171/81 138/149/81
f 135/170/86 141/169/86 140/175/86 134/172/86
f 146/174/51 150/178/51 149/177/51 145/180/51
f 147/173/51 148/181/51 150/178/51 146/174/51
f 144/171/85 150/178/85 148/181/85 142/168/85
f 142/168/88 148/181/88 147/173/88 141/169/88
f 140/175/84 146/174/84 145/180/84 139/179/84
f 139/179/89 145/180/89 149/177/89 143/176/89
