# Blender v2.82 (sub 7) OBJ File: 'tree .blend'
# www.blender.org
mtllib tree .mtl
o Cube_Cube.001
v -0.538847 0.067073 0.538847
v -0.328657 1.106180 0.368523
v -0.538847 0.067073 -0.538847
v -0.328657 1.106180 -0.270248
v 0.538847 0.067073 0.538847
v 0.310114 1.106180 0.368523
v 0.538847 0.067073 -0.538847
v 0.310114 1.106180 -0.270248
v -0.538847 0.067073 0.000000
v -0.428892 0.664131 0.428892
v -0.328657 1.106180 0.049138
v -0.428892 0.664131 -0.428892
v 0.000000 0.067073 -0.538847
v -0.009271 1.106180 -0.270248
v 0.428892 0.664131 -0.428892
v 0.538847 0.067073 0.000000
v 0.310114 1.106180 0.049138
v 0.428892 0.664131 0.428892
v 0.000000 0.067073 0.538847
v -0.009271 1.106180 0.368523
v -0.620738 3.780573 0.306947
v 0.000000 0.067073 0.000000
v 0.000000 0.664131 0.428892
v 0.428892 0.664131 0.000000
v 0.000000 0.664131 -0.428892
v -0.428892 0.664131 0.000000
v -0.291587 2.476628 0.460646
v -0.291587 2.476628 -0.074824
v 0.157581 2.444042 0.503514
v 0.243883 2.476628 -0.074824
v -0.291587 2.476628 0.192911
v -0.023852 2.476628 -0.074824
v 0.243883 2.476628 0.192911
v -0.110154 2.444042 0.503514
v -0.511995 4.793838 0.438994
v -0.620738 3.780573 -0.220474
v -0.141489 3.748806 0.478646
v -0.093317 3.780573 -0.220474
v -0.620738 3.780573 0.043236
v -0.357028 3.780573 -0.220474
v -0.280001 3.780573 -0.071372
v -0.405200 3.748806 0.478646
v -0.555286 5.828642 0.371859
v -0.479152 4.837906 -0.047408
v -0.020023 4.793863 0.440679
v -0.028616 4.837906 -0.047408
v -0.479152 4.837906 0.177859
v -0.253884 4.837906 -0.047408
v -0.028616 4.837906 0.177859
v -0.278076 4.794357 0.473540
v -0.639879 6.866654 0.227854
v -0.312681 5.784395 0.015154
v 0.026447 5.828668 0.373545
v 0.013888 5.784395 0.015154
v -0.406419 5.784395 0.089541
v -0.149396 5.784395 0.015154
v 0.013888 5.784395 0.178438
v -0.163839 5.829161 0.406405
v -0.438728 7.454878 0.227369
v -0.639879 6.866654 0.051252
v -0.463277 6.866654 0.227854
v -0.463277 6.866654 0.051252
v -0.639879 6.866654 0.139553
v -0.551578 6.866654 0.051252
v -0.463277 6.866654 0.139553
v -0.551578 6.866654 0.227854
v -0.342120 7.683819 0.071639
v -0.438728 7.454878 0.124783
v -0.336141 7.454878 0.227369
v -0.336141 7.454878 0.124783
v -0.438728 7.454878 0.176076
v -0.387435 7.454878 0.124783
v -0.336141 7.454878 0.176076
v -0.387435 7.454878 0.227369
v -0.246660 7.804834 0.072201
v -0.342120 7.683819 0.029669
v -0.300149 7.683819 0.071639
v -0.300149 7.683819 0.029669
v -0.342120 7.683819 0.050654
v -0.321134 7.683819 0.029669
v -0.300149 7.683819 0.050654
v -0.321134 7.683819 0.071639
v -0.753018 5.864501 0.250184
v -0.485465 5.328468 0.094141
v -0.633847 5.330173 0.398839
v -0.753018 5.864501 0.166173
v -0.797777 5.594842 0.270373
v -0.797777 5.594842 0.166453
v -1.011295 5.938882 0.180181
v -1.011295 5.938882 0.128149
v -1.039016 5.771874 0.192684
v -1.039016 5.771874 0.128323
v -1.189289 6.064956 0.154860
v -1.189289 6.064956 0.115161
v -1.210439 5.937533 0.164400
v -1.210439 5.937533 0.115294
v -1.308642 6.039876 0.123911
v -1.308642 6.039876 0.101628
v -1.320514 5.968352 0.129267
v -1.320514 5.968352 0.101702
v -1.435295 5.964109 0.118189
v 0.353801 5.349636 0.414609
v -0.019624 5.328468 0.177349
v 0.353801 5.349636 0.296966
v -0.010192 5.330198 0.400524
v 0.348205 5.044368 0.297284
v 0.348205 5.044368 0.437464
v 0.572181 5.458133 0.255885
v 0.568266 5.244566 0.256107
v 0.572181 5.458133 0.338188
v 0.568266 5.244566 0.354178
v 0.863774 5.561772 0.219049
v 0.861481 5.436715 0.219179
v 0.863774 5.561772 0.267244
v 0.861481 5.436715 0.276607
v 1.041400 5.671612 0.181537
v 1.039625 5.574765 0.181637
v 1.041400 5.671612 0.218859
v 1.039625 5.574765 0.226110
v 1.165687 5.753609 0.130534
v 1.164566 5.692431 0.130598
v 1.165687 5.753609 0.154110
v 1.164566 5.692431 0.158691
v 1.264054 5.810387 0.108657
v 0.243883 2.476628 0.326778
v -0.093317 3.780573 0.175091
v -0.111401 3.128600 0.003465
v -0.011019 3.096015 0.426664
v 0.075283 3.128600 0.250935
v -0.093317 3.780573 0.241019
v -0.093317 3.780573 0.109164
v -0.195701 3.454587 -0.033953
v -0.095319 3.422001 0.388239
v 0.075283 3.128600 0.317366
v 0.075283 3.128600 0.184504
v 0.601557 3.817063 0.399643
v 0.659497 3.817063 0.115945
v 0.616831 3.817063 0.315098
v 0.767602 3.399021 0.163931
v 0.709663 3.399021 0.448919
v 0.709663 3.399021 0.363729
v 0.601557 3.817063 0.357371
v 0.662094 3.817063 0.272826
v 0.713549 3.608042 0.139938
v 0.655610 3.608042 0.424281
v 0.709663 3.399021 0.406324
v 0.709663 3.399021 0.321134
v 1.296137 3.982685 0.492137
v 1.296137 3.982685 0.513228
v 1.326340 3.982685 0.449956
v 1.303758 3.982685 0.471047
v 1.352012 3.878401 0.440836
v 1.378980 3.774117 0.452807
v 1.323105 3.878401 0.525520
v 1.350073 3.774117 0.537812
v 1.350073 3.774117 0.516561
v 1.350073 3.774117 0.474058
v 1.350073 3.774117 0.495309
v 1.325044 3.982685 0.428866
v 1.916362 4.185705 0.652587
v 1.916362 4.185705 0.664033
v 1.932753 4.185705 0.629696
v 1.920497 4.185705 0.641141
v 1.946685 4.129111 0.624746
v 1.961320 4.072517 0.631243
v 1.930997 4.129111 0.670704
v 1.945632 4.072517 0.677374
v 1.945632 4.072517 0.665842
v 1.945632 4.072517 0.642776
v 1.945632 4.072517 0.654309
v 1.932049 4.185705 0.618250
v 2.192637 4.282153 0.692500
v -0.280001 3.780573 0.043236
v -0.111401 3.128600 0.118074
v -0.195701 3.454587 0.080655
v -0.195701 3.454587 0.080655
v -0.111401 3.128600 0.118074
v -0.280001 3.780573 0.043236
vt 0.500000 0.125000
vt 0.625000 0.125000
vt 0.625000 0.250000
vt 0.500000 0.250000
vt 0.500000 0.375000
vt 0.625000 0.375000
vt 0.625000 0.500000
vt 0.500000 0.500000
vt 0.500000 0.625000
vt 0.625000 0.625000
vt 0.625000 0.750000
vt 0.500000 0.750000
vt 0.500000 0.875000
vt 0.625000 0.875000
vt 0.625000 1.000000
vt 0.500000 1.000000
vt 0.250000 0.625000
vt 0.375000 0.625000
vt 0.375000 0.750000
vt 0.250000 0.750000
vt 0.625000 0.750000
vt 0.625000 0.875000
vt 0.625000 0.000000
vt 0.625000 0.000000
vt 0.625000 0.125000
vt 0.625000 0.375000
vt 0.625000 0.500000
vt 0.625000 0.625000
vt 0.125000 0.625000
vt 0.125000 0.750000
vt 0.125000 0.500000
vt 0.250000 0.500000
vt 0.375000 0.500000
vt 0.375000 0.875000
vt 0.375000 1.000000
vt 0.375000 0.375000
vt 0.375000 0.250000
vt 0.375000 0.125000
vt 0.375000 0.000000
vt 0.500000 0.000000
vt 0.625000 0.500000
vt 0.625000 0.625000
vt 0.625000 0.625000
vt 0.625000 0.625000
vt 0.625000 0.375000
vt 0.625000 1.000000
vt 0.625000 0.875000
vt 0.625000 1.000000
vt 0.625000 0.250000
vt 0.625000 0.250000
vt 0.625000 0.687500
vt 0.625000 0.875000
vt 0.625000 1.000000
vt 0.625000 0.250000
vt 0.625000 0.375000
vt 0.625000 0.750000
vt 0.625000 0.750000
vt 0.625000 0.125000
vt 0.625000 0.125000
vt 0.625000 0.000000
vt 0.625000 0.750000
vt 0.625000 0.750000
vt 0.625000 0.125000
vt 0.625000 0.125000
vt 0.625000 0.250000
vt 0.625000 0.625000
vt 0.625000 0.625000
vt 0.625000 0.750000
vt 0.625000 0.750000
vt 0.625000 0.000000
vt 0.625000 0.000000
vt 0.625000 0.125000
vt 0.625000 0.625000
vt 0.625000 0.500000
vt 0.625000 0.500000
vt 0.625000 0.625000
vt 0.625000 0.625000
vt 0.625000 0.625000
vt 0.625000 0.750000
vt 0.625000 0.000000
vt 0.625000 0.000000
vt 0.625000 0.125000
vt 0.625000 0.500000
vt 0.625000 0.375000
vt 0.625000 0.375000
vt 0.625000 0.875000
vt 0.625000 1.000000
vt 0.625000 1.000000
vt 0.625000 0.375000
vt 0.625000 0.500000
vt 0.625000 1.000000
vt 0.625000 0.875000
vt 0.625000 0.875000
vt 0.625000 1.000000
vt 0.625000 0.250000
vt 0.625000 0.250000
vt 0.625000 0.750000
vt 0.625000 0.250000
vt 0.625000 0.375000
vt 0.625000 0.750000
vt 0.625000 0.875000
vt 0.625000 0.125000
vt 0.625000 0.125000
vt 0.625000 0.625000
vt 0.625000 0.625000
vt 0.625000 0.000000
vt 0.625000 0.250000
vt 0.625000 0.750000
vt 0.625000 0.000000
vt 0.625000 0.125000
vt 0.625000 0.500000
vt 0.625000 0.625000
vt 0.625000 1.000000
vt 0.625000 0.875000
vt 0.625000 0.375000
vt 0.625000 1.000000
vt 0.625000 0.500000
vt 0.625000 1.000000
vt 0.625000 1.000000
vt 0.625000 0.000000
vt 0.625000 0.125000
vt 0.625000 0.125000
vt 0.625000 0.000000
vt 0.625000 1.000000
vt 0.625000 1.000000
vt 0.625000 1.000000
vt 0.625000 1.000000
vt 0.625000 0.125000
vt 0.625000 0.000000
vt 0.625000 0.125000
vt 0.625000 0.125000
vt 0.625000 0.125000
vt 0.625000 0.125000
vt 0.625000 0.000000
vt 0.625000 0.000000
vt 0.625000 0.000000
vt 0.625000 0.000000
vt 0.625000 1.000000
vt 0.625000 1.000000
vt 0.625000 0.000000
vt 0.625000 0.718750
vt 0.625000 0.687500
vt 0.625000 0.656250
vt 0.625000 1.000000
vt 0.625000 0.125000
vt 0.625000 0.750000
vt 0.625000 0.750000
vt 0.625000 0.750000
vt 0.625000 0.625000
vt 0.625000 0.750000
vt 0.625000 0.625000
vt 0.625000 0.625000
vt 0.625000 0.750000
vt 0.625000 0.750000
vt 0.625000 0.625000
vt 0.625000 0.625000
vt 0.625000 0.750000
vt 0.625000 0.750000
vt 0.625000 0.625000
vt 0.625000 0.625000
vt 0.625000 0.750000
vt 0.625000 0.625000
vt 0.625000 0.750000
vt 0.625000 0.625000
vt 0.625000 0.750000
vt 0.625000 0.656250
vt 0.625000 0.687500
vt 0.625000 0.718750
vt 0.625000 0.750000
vt 0.625000 0.750000
vt 0.625000 0.656250
vt 0.625000 0.687500
vt 0.625000 0.687500
vt 0.625000 0.656250
vt 0.625000 0.750000
vt 0.625000 0.718750
vt 0.625000 0.625000
vt 0.625000 0.687500
vt 0.625000 0.656250
vt 0.625000 0.656250
vt 0.625000 0.687500
vt 0.625000 0.718750
vt 0.625000 0.750000
vt 0.625000 0.718750
vt 0.625000 0.625000
vt 0.625000 0.625000
vt 0.625000 0.625000
vt 0.625000 0.656250
vt 0.625000 0.625000
vt 0.625000 0.625000
vt 0.625000 0.625000
vt 0.625000 0.750000
vt 0.625000 0.750000
vt 0.625000 0.718750
vt 0.625000 0.687500
vt 0.625000 0.718750
vt 0.625000 0.750000
vt 0.625000 0.687500
vt 0.625000 0.656250
vt 0.625000 0.625000
vt 0.625000 0.625000
vt 0.625000 0.750000
vt 0.625000 0.750000
vt 0.625000 0.718750
vt 0.625000 0.750000
vt 0.625000 0.656250
vt 0.625000 0.625000
vt 0.625000 0.687500
vt 0.625000 0.718750
vt 0.625000 0.625000
vt 0.625000 0.625000
vt 0.625000 0.625000
vt 0.625000 0.625000
vt 0.625000 0.625000
vt 0.625000 0.625000
vn -0.9752 0.2211 0.0000
vn 0.0000 0.3378 -0.9412
vn 0.9657 0.2595 0.0000
vn 0.0000 0.1353 0.9908
vn 0.0000 -1.0000 0.0000
vn 0.0000 -0.1004 0.9949
vn -0.9996 0.0270 0.0000
vn 0.0000 0.1412 -0.9900
vn 0.9988 0.0483 0.0000
vn 0.0000 0.1811 0.9835
vn 0.9835 0.1811 0.0000
vn 0.0000 0.1811 -0.9835
vn -0.9835 0.1811 0.0000
vn 0.7429 0.3366 0.5786
vn 0.0000 -0.1110 -0.9938
vn -0.4817 -0.0554 0.8746
vn 0.9890 0.0520 0.1382
vn -0.0905 -0.0853 0.9922
vn -0.4175 -0.0082 0.9086
vn 0.0000 0.1615 -0.9869
vn 0.0629 0.0131 0.9979
vn -0.9912 0.1327 0.0000
vn -0.9696 -0.2447 0.0000
vn 0.1884 0.0619 0.9801
vn -0.8805 0.0995 -0.4635
vn 0.9083 0.4052 -0.1036
vn -0.9231 -0.1541 -0.3524
vn 0.9984 -0.0449 0.0336
vn 0.8735 -0.2175 0.4356
vn -0.9907 0.1264 -0.0514
vn 0.3054 -0.0066 -0.9522
vn 0.9962 -0.0744 -0.0442
vn -0.7066 -0.6605 -0.2538
vn 0.9150 0.4034 0.0000
vn 0.0000 0.0333 -0.9994
vn 0.1615 0.0518 0.9855
vn 0.0000 0.0660 -0.9978
vn -0.1020 0.0673 0.9925
vn 0.0000 0.1240 -0.9923
vn 0.0000 0.0008 1.0000
vn -0.8489 -0.2004 -0.4891
vn 0.1151 0.2007 0.9729
vn -0.0713 0.1373 0.9880
vn 0.0000 -0.3837 -0.9235
vn 0.0000 0.5624 0.8268
vn -0.9213 0.3888 0.0000
vn 0.9879 -0.1553 0.0000
vn 0.9774 -0.2113 0.0000
vn -0.9462 0.3236 0.0000
vn -0.7851 0.6193 0.0000
vn 0.9146 -0.4043 0.0000
vn 0.0000 -0.0046 1.0000
vn 0.0000 0.3316 -0.9434
vn -0.4878 0.1313 0.8630
vn 0.2767 0.9609 0.0000
vn -0.9375 -0.1546 -0.3118
vn -0.2061 0.0286 -0.9781
vn 0.2108 0.9770 -0.0323
vn -0.0793 0.0875 0.9930
vn 0.1388 -0.0241 -0.9900
vn -0.5916 -0.8062 0.0000
vn -0.2302 0.1106 0.9668
vn 0.1169 -0.0204 -0.9929
vn -0.6949 -0.7191 0.0000
vn 0.0645 -0.0117 -0.9978
vn 0.5780 0.8160 0.0000
vn -0.5134 0.8582 0.0000
vn -0.2056 0.9786 0.0000
vn -0.2722 0.1167 0.9551
vn -0.2696 -0.9630 0.0000
vn 0.9805 -0.0598 -0.1873
vn -0.0990 0.0906 0.9910
vn 0.0369 -0.9993 0.0000
vn -0.1430 0.0227 -0.9895
vn -0.0426 0.0754 0.9962
vn -0.4449 0.8956 0.0000
vn 0.5317 -0.8406 -0.1032
vn -0.0543 0.9985 -0.0036
vn -0.3349 0.9423 0.0000
vn -0.1860 0.0024 -0.9825
vn 0.6729 -0.7397 0.0000
vn 0.3003 0.0657 0.9516
vn -0.5259 0.8505 0.0000
vn -0.1258 0.0013 -0.9921
vn 0.5481 -0.8364 0.0000
vn 0.2126 0.0691 0.9747
vn 0.6856 -0.7280 0.0000
vn -0.2083 0.0028 -0.9781
vn 0.6125 -0.7904 0.0000
vn 0.2224 0.0687 0.9725
vn -0.4999 0.8661 0.0000
vn 0.4300 0.0596 0.9009
vn -0.5507 0.8347 0.0000
vn -0.3830 0.0061 -0.9237
vn -0.2187 0.0030 -0.9758
vn 0.7644 -0.6447 0.0000
vn 0.3891 0.0617 0.9191
vn 0.9648 0.2629 0.0037
vn -0.0720 0.0984 0.9925
vn -0.1866 0.9619 -0.1998
vn -0.0749 0.9922 0.0997
vn -0.0486 0.9984 0.0273
vn 0.5054 -0.8629 0.0000
vn 0.3570 -0.9242 -0.1359
vn -0.0458 0.9988 -0.0191
vn 0.3904 -0.9206 0.0100
vn 0.0478 -0.1129 0.9925
vn -0.0506 0.9987 -0.0071
vn 0.3087 -0.8535 0.4199
vn 0.4243 0.0058 -0.9055
vn -0.1772 0.0699 0.9817
vn -0.2168 0.9731 -0.0783
vn -0.2319 0.9727 0.0000
vn -0.2436 0.9699 0.0053
vn 0.4480 -0.8941 0.0000
vn 0.4446 -0.8692 0.2164
vn -0.2382 0.9372 -0.2550
vn 0.3068 -0.0299 -0.9513
vn -0.2511 0.0490 0.9667
vn -0.2853 0.9529 -0.1031
vn -0.3111 0.9504 0.0000
vn -0.3227 0.9463 0.0198
vn 0.6471 -0.7624 0.0000
vn 0.4427 -0.6644 0.6021
vn -0.2707 0.9180 -0.2898
vn 0.2861 -0.0359 -0.9575
vn -0.1307 0.0827 0.9880
vn -0.3129 0.9430 -0.1131
vn -0.3296 0.9441 0.0000
vn -0.3524 0.9356 0.0216
vn 0.1975 -0.0612 -0.9784
vn 0.0000 0.0000 1.0000
vn -0.9682 -0.2504 0.0000
usemtl None
s off
f 26/1/1 11/2/1 4/3/1 12/4/1
f 25/5/2 14/6/2 8/7/2 15/8/2
f 24/9/3 17/10/3 6/11/3 18/12/3
f 23/13/4 20/14/4 2/15/4 10/16/4
f 22/17/5 16/18/5 5/19/5 19/20/5
f 20/14/6 6/11/6 29/21/6 34/22/6
f 11/2/7 2/23/7 27/24/7 31/25/7
f 8/7/8 14/6/8 32/26/8 30/27/8
f 17/10/9 8/7/9 30/27/9 33/28/9
f 9/29/5 22/17/5 19/20/5 1/30/5
f 3/31/5 13/32/5 22/17/5 9/29/5
f 13/32/5 7/33/5 16/18/5 22/17/5
f 19/34/10 23/13/10 10/16/10 1/35/10
f 5/19/10 18/12/10 23/13/10 19/34/10
f 18/12/4 6/11/4 20/14/4 23/13/4
f 16/18/11 24/9/11 18/12/11 5/19/11
f 7/33/11 15/8/11 24/9/11 16/18/11
f 15/8/3 8/7/3 17/10/3 24/9/3
f 13/36/12 25/5/12 15/8/12 7/33/12
f 3/37/12 12/4/12 25/5/12 13/36/12
f 12/4/2 4/3/2 14/6/2 25/5/2
f 9/38/13 26/1/13 12/4/13 3/37/13
f 1/39/13 10/40/13 26/1/13 9/38/13
f 10/40/1 2/23/1 11/2/1 26/1/1
f 33/28/14 30/27/14 38/41/14 41/42/14 132/43/14 127/44/14
f 30/27/15 32/26/15 40/45/15 38/41/15
f 27/46/16 34/22/16 42/47/16 21/48/16
f 32/26/15 28/49/15 36/50/15 40/45/15
f 6/11/17 17/10/17 33/28/17 125/51/17 29/21/17
f 14/6/8 4/3/8 28/49/8 32/26/8
f 4/3/7 11/2/7 31/25/7 28/49/7
f 2/15/18 20/14/18 34/22/18 27/46/18
f 21/48/19 42/47/19 50/52/19 35/53/19
f 40/45/20 36/50/20 44/54/20 48/55/20
f 42/47/21 37/56/21 45/57/21 50/52/21
f 36/50/22 39/58/22 47/59/22 44/54/22
f 31/25/23 27/24/23 21/60/23 39/58/23
f 28/49/23 31/25/23 39/58/23 36/50/23
f 34/22/24 29/21/24 128/61/24 133/62/24 37/56/24 42/47/24
f 44/54/25 47/59/25 84/63/25 55/64/25 52/65/25
f 57/66/26 65/67/26 61/68/26 53/69/26
f 43/70/27 51/71/27 63/72/27 55/64/27
f 49/73/28 46/74/28 54/75/28 57/66/28 103/76/28
f 38/41/20 40/45/20 48/55/20 46/74/20
f 41/42/29 38/41/29 46/74/29 49/73/29
f 21/48/30 35/53/30 47/59/30 39/58/30
f 49/73/31 103/76/31 104/77/31 106/78/31
f 57/66/32 53/69/32 105/79/32 103/76/32
f 84/63/33 85/80/33 87/81/33 88/82/33
f 57/66/34 54/75/34 62/83/34 65/67/34
f 54/75/35 56/84/35 64/85/35 62/83/35
f 50/52/36 45/57/36 105/79/36 53/69/36 58/86/36
f 48/55/37 44/54/37 52/65/37 56/84/37
f 35/53/38 50/52/38 58/86/38 43/87/38 85/88/38
f 46/74/37 48/55/37 56/84/37 54/75/37
f 62/83/39 64/85/39 72/89/39 70/90/39
f 51/91/40 66/92/40 74/93/40 59/94/40
f 64/85/39 60/95/39 68/96/39 72/89/39
f 66/92/40 61/68/40 69/97/40 74/93/40
f 52/65/41 55/64/41 63/72/41 60/95/41
f 58/86/42 53/69/42 61/68/42 66/92/42
f 56/84/35 52/65/35 60/95/35 64/85/35
f 43/87/43 58/86/43 66/92/43 51/91/43
f 72/89/44 68/96/44 76/98/44 80/99/44
f 74/93/45 69/97/45 77/100/45 82/101/45
f 68/96/46 71/102/46 79/103/46 76/98/46
f 69/97/47 73/104/47 81/105/47 77/100/47
f 65/67/48 62/83/48 70/90/48 73/104/48
f 63/72/49 51/71/49 59/106/49 71/102/49
f 61/68/48 65/67/48 73/104/48 69/97/48
f 60/95/49 63/72/49 71/102/49 68/96/49
f 76/98/50 79/103/50 75/107/50
f 77/100/51 81/105/51 75/108/51
f 79/103/50 67/109/50 75/110/50
f 81/105/51 78/111/51 75/112/51
f 59/94/45 74/93/45 82/101/45 67/113/45
f 70/90/44 72/89/44 80/99/44 78/111/44
f 73/104/47 70/90/47 78/111/47 81/105/47
f 71/102/46 59/106/46 67/109/46 79/103/46
f 82/101/52 77/100/52 75/114/52
f 80/99/53 76/98/53 75/115/53
f 67/113/52 82/101/52 75/116/52
f 78/111/53 80/99/53 75/117/53
f 85/88/54 43/87/54 83/118/54 87/119/54
f 83/120/55 86/121/55 90/122/55 89/123/55
f 84/63/56 47/59/56 35/53/56 85/80/56
f 55/64/57 84/63/57 88/82/57 86/121/57
f 43/70/58 55/64/58 86/121/58 83/120/58
f 91/124/59 89/125/59 93/126/59 95/127/59
f 86/121/60 88/82/60 92/128/60 90/122/60
f 88/82/61 87/81/61 91/129/61 92/128/61
f 87/119/62 83/118/62 89/125/62 91/124/62
f 94/130/63 96/131/63 100/132/63 98/133/63
f 92/128/64 91/129/64 95/134/64 96/131/64
f 90/122/65 92/128/65 96/131/65 94/130/65
f 89/123/66 90/122/66 94/130/66 93/135/66
f 97/136/67 98/133/67 101/137/67
f 93/135/68 94/130/68 98/133/68 97/136/68
f 95/127/69 93/126/69 97/138/69 99/139/69
f 96/131/70 95/134/70 99/140/70 100/132/70
f 37/56/71 130/141/71 126/142/71 131/143/71 41/42/71 49/73/71 45/57/71
f 99/139/72 97/138/72 101/144/72
f 100/132/73 99/140/73 101/145/73
f 98/133/74 100/132/74 101/145/74
f 105/79/75 45/57/75 107/146/75 102/147/75
f 104/77/76 102/147/76 110/148/76 108/149/76
f 45/57/77 49/73/77 106/78/77 107/146/77
f 103/76/78 105/79/78 102/147/78 104/77/78
f 108/149/79 110/148/79 114/150/79 112/151/79
f 106/78/80 104/77/80 108/149/80 109/152/80
f 107/146/81 106/78/81 109/152/81 111/153/81
f 102/147/82 107/146/82 111/153/82 110/148/82
f 112/151/83 114/150/83 118/154/83 116/155/83
f 109/152/84 108/149/84 112/151/84 113/156/84
f 111/153/85 109/152/85 113/156/85 115/157/85
f 110/148/86 111/153/86 115/157/86 114/150/86
f 119/158/87 117/159/87 121/160/87 123/161/87
f 113/156/88 112/151/88 116/155/88 117/159/88
f 115/157/89 113/156/89 117/159/89 119/158/89
f 114/150/90 115/157/90 119/158/90 118/154/90
f 120/162/91 122/163/91 124/164/91
f 118/154/92 119/158/92 123/161/92 122/163/92
f 116/155/93 118/154/93 122/163/93 120/162/93
f 117/159/94 116/155/94 120/162/94 121/160/94
f 121/160/95 120/162/95 124/164/95
f 123/161/96 121/160/96 124/165/96
f 122/163/97 123/161/97 124/165/97
f 29/21/98 125/51/98 33/28/98 127/44/98 135/166/98 129/167/98 134/168/98 128/61/98
f 133/62/99 128/61/99 140/169/99 145/170/99
f 143/171/100 138/172/100 151/173/100 150/174/100
f 130/141/101 37/56/101 136/175/101 142/176/101
f 41/42/102 131/143/102 143/171/102 137/177/102
f 141/178/103 147/179/103 157/180/103 158/181/103 156/182/103 155/183/103 140/169/103 146/184/103
f 135/166/104 127/44/104 139/185/104 147/179/104
f 131/143/105 126/142/105 138/172/105 143/171/105
f 134/168/106 129/167/106 135/166/106 147/179/106 141/178/106 146/184/106 140/169/106 128/61/106
f 37/56/107 133/62/107 145/170/107 136/175/107
f 126/142/108 130/141/108 142/176/108 138/172/108
f 157/180/109 153/186/109 165/187/109 169/188/109
f 144/189/110 137/177/110 159/190/110 152/191/110
f 139/185/110 144/189/110 152/191/110 153/186/110
f 136/175/111 145/170/111 154/192/111 149/193/111
f 138/172/112 142/176/112 148/194/112 151/173/112
f 145/170/111 140/169/111 155/183/111 154/192/111
f 142/176/113 136/175/113 149/193/113 148/194/113
f 137/177/114 143/171/114 150/174/114 159/190/114
f 158/181/115 157/180/115 169/188/115 170/195/115 168/196/115 167/197/115 155/183/115 156/182/115
f 147/179/116 139/185/116 153/186/116 157/180/116
f 150/174/117 151/173/117 163/198/117 162/199/117
f 152/191/118 159/190/118 171/200/118 164/201/118
f 153/186/118 152/191/118 164/201/118 165/187/118
f 149/193/119 154/192/119 166/202/119 161/203/119
f 151/173/120 148/194/120 160/204/120 163/198/120
f 154/192/119 155/183/119 167/197/119 166/202/119
f 148/194/121 149/193/121 161/203/121 160/204/121
f 159/190/122 150/174/122 162/199/122 171/200/122
f 167/197/123 168/196/123 170/195/123 169/188/123 172/205/123
f 169/188/124 165/187/124 172/206/124
f 162/199/125 163/198/125 172/206/125
f 164/201/126 171/200/126 172/207/126
f 165/187/126 164/201/126 172/207/126
f 161/203/127 166/202/127 172/205/127
f 163/198/128 160/204/128 172/208/128
f 166/202/127 167/197/127 172/205/127
f 160/204/129 161/203/129 172/209/129
f 171/200/130 162/199/130 172/207/130
f 132/43/131 41/42/131 137/177/131 144/189/131 139/185/131 127/44/131
f 178/210/132 176/211/132 175/212/132 173/213/132
f 176/211/132 177/214/132 174/215/132 175/212/132
f 132/43/133 127/44/133 177/214/133 176/211/133
f 41/42/133 132/43/133 176/211/133 178/210/133
